<svg xmlns="http://www.w3.org/2000/svg" width="39" height="39" viewBox="0 0 39 39">
    <g fill="none" fill-rule="evenodd">
        <circle cx="19.5" cy="19.5" r="19.5" fill="#E2E2E2" opacity=".5"/>
        <path fill="#F19848" fill-rule="nonzero" d="M25.625 16.875c.675 0 1.125.45 1.125 1.125v3.375h1.125c.675 0 1.125.45 1.125 1.125v3.375C29 26.55 28.55 27 27.875 27h-15.75C11.45 27 11 26.55 11 25.875V22.5c0-.675.45-1.125 1.125-1.125h1.125V18c0-.675.45-1.125 1.125-1.125zM20 9s2.25 3.262 2.25 4.5A2.257 2.257 0 0 1 20 15.75a2.257 2.257 0 0 1-2.25-2.25C17.75 12.262 20 9 20 9z"/>
    </g>
</svg>
