<svg xmlns="http://www.w3.org/2000/svg" width="39" height="39" viewBox="0 0 39 39">
    <g fill="none" fill-rule="evenodd">
        <circle cx="19.5" cy="19.5" r="19.5" fill="#E2E2E2" opacity=".5"/>
        <path fill="#F19848" fill-rule="nonzero" d="M15.423 14.021a.8.8 0 0 1 .743.215l8.8 8.8a.8.8 0 0 1-.3 1.32l-13.6 4.8a.8.8 0 0 1-1.02-1.021l4.8-13.6a.8.8 0 0 1 .577-.514zm-2.348 10.337l-.964 2.732 1.678-.592-.714-2.14zm2.39-6.769l-.88 2.492 1.829 5.489 1.53-.54-2.48-7.44zm3.109 1.307l1.76 5.292L22 23.6l-.626-1.905-2.8-2.8zm10.358.908a.8.8 0 0 1-.18 1.319l-.1.04-2.4.8a.8.8 0 0 1-.603-1.48l.098-.04 2.4-.8a.8.8 0 0 1 .785.16zM27.6 12.4a.8.8 0 0 1 .8.8 5.606 5.606 0 0 1-5.6 5.6.8.8 0 1 1 0-1.6 4.005 4.005 0 0 0 4-4 .8.8 0 0 1 .8-.8zm-4.8-1.2a2 2 0 1 1 0 4 2 2 0 0 1 0-4zm-3.748-1.16c.385.128.608.52.535.908l-.028.105-.8 2.4a.8.8 0 0 1-1.55-.383l.03-.123.8-2.4a.8.8 0 0 1 1.013-.507z"/>
    </g>
</svg>
